<svg xmlns="http://www.w3.org/2000/svg" width="79" height="78" viewBox="0 0 79 78" fill="none">
<circle cx="39.5" cy="39" r="39" fill="#C2D0DE"/>
<path d="M39.5013 19.0013C28.4518 19.0013 19.5 28.1863 19.5 39.5064C19.5 48.5709 25.2304 56.2539 33.1721 58.9645C34.1759 59.158 34.5384 58.5236 34.5384 57.9751C34.5384 57.4881 34.5272 56.2001 34.5197 54.4905C28.9531 55.7259 27.7805 51.7338 27.7805 51.7338C26.8692 49.3706 25.5541 48.7362 25.5541 48.7362C23.744 47.4688 25.6979 47.4957 25.6979 47.4957C27.703 47.6354 28.7581 49.6039 28.7581 49.6039C30.5419 52.7412 33.4384 51.8338 34.5847 51.3058C34.7597 49.9845 35.281 49.0759 35.8485 48.5696C31.4082 48.0557 26.7392 46.2936 26.7392 38.4363C26.7392 36.1923 27.5143 34.3647 28.7956 32.9294C28.5743 32.4155 27.8968 30.3265 28.9718 27.5019C28.9718 27.5019 30.6457 26.9547 34.4722 29.605C36.0735 29.15 37.7736 28.9232 39.4725 28.9117C41.1726 28.9232 42.8715 29.1513 44.4728 29.605C48.2768 26.9547 49.9494 27.5019 49.9494 27.5019C51.0232 30.3265 50.3457 32.4142 50.1507 32.9294C51.4195 34.3647 52.1945 36.1935 52.1945 38.4363C52.1945 46.3115 47.5193 48.048 43.074 48.5491C43.769 49.163 44.4203 50.4254 44.4203 52.3413C44.4203 55.0839 44.3953 57.2933 44.3953 57.961C44.3953 58.4941 44.7453 59.1349 45.7754 58.9286C53.7759 56.2462 59.5 48.5568 59.5 39.5051C59.5 28.185 50.5482 19 39.4988 19L39.5013 19.0013Z" fill="#394B76"/>
</svg>