<svg xmlns="http://www.w3.org/2000/svg" width="79" height="78" viewBox="0 0 79 78" fill="none">
<circle cx="39.5" cy="39" r="39" fill="#C2D0DE"/>
<path d="M28.4546 59H20.1615V32.2943H28.4546V59ZM24.303 28.6514C21.6515 28.6514 19.5 26.4543 19.5 23.8029C19.5 21.1514 21.6501 19 24.303 19C26.956 19 29.1061 21.15 29.1061 23.8029C29.1061 26.4543 26.9546 28.6514 24.303 28.6514ZM59.4929 59H51.2183V46C51.2183 42.9014 51.1554 38.9286 46.9067 38.9286C42.5951 38.9286 41.9337 42.2943 41.9337 45.7771V59H33.6491V32.2943H41.6022V35.9371H41.7179C42.8251 33.8386 45.5295 31.6243 49.5639 31.6243C57.9571 31.6243 59.5 37.1514 59.5 44.33V59H59.4929Z" fill="#2B3A5E"/>
</svg>